<svg id="Layer_1" xmlns="http://www.w3.org/2000/svg" viewBox="0 0 240.5 29.2"><style>.st0{display:none;} .st1{display:inline;} .st2{fill:#FFCE00;}</style><g id="XMLID_2_" class="st0"><g id="XMLID_538_" class="st1"><path id="XMLID_552_" class="st2" d="M-21.3 33.3c0 1.5.3 1.7 2.4 1.7 2.2 0 2.4-.2 2.4-1.7 0-1.1-.1-1.4-1-1.5.7-.1.9-.5.9-1.4 0-1.5-.2-1.7-2.3-1.7-2.1 0-2.3.2-2.3 1.7 0 .9.1 1.3.9 1.4-.8.1-1 .4-1 1.5zm2.5-3.7c1 0 1.1.1 1.1.9s-.1.9-1.1.9-1.1-.1-1.1-.9.1-.9 1.1-.9zm0 2.6c1.1 0 1.2.1 1.2 1 0 .8-.1.9-1.2.9-1.1 0-1.2-.1-1.2-.9-.1-.9.1-1 1.2-1z"/><path id="XMLID_548_" class="st2" d="M-31.6 33.3c0 1.5.3 1.7 2.4 1.7 2.2 0 2.4-.2 2.4-1.7 0-1.1-.1-1.4-1-1.5.7-.1.9-.5.9-1.4 0-1.5-.2-1.7-2.3-1.7-2.1 0-2.3.2-2.3 1.7 0 .9.1 1.3.9 1.4-.9.1-1 .4-1 1.5zm2.4-3.7c1 0 1.1.1 1.1.9s-.1.9-1.1.9-1.1-.1-1.1-.9.2-.9 1.1-.9zm0 2.6c1.1 0 1.2.1 1.2 1 0 .8-.1.9-1.2.9-1.1 0-1.2-.1-1.2-.9 0-.9.1-1 1.2-1z"/><path id="XMLID_547_" class="st2" d="M-8.5 34.1c-1.1 0-1.2-.1-1.2-.9l-1.2.1c0 1.5.2 1.7 2.4 1.8 2.1 0 2.4-.2 2.4-1.9s-.3-1.9-2.2-1.9c-.6 0-.9 0-1.2.1v-1.7h2.2l.1.7h1v-1.6h-4.3l-.1 3.5c.7-.1 1.2-.1 2.1-.1 1.2 0 1.3.2 1.3 1.1-.2.7-.3.8-1.3.8z"/><path id="XMLID_546_" class="st2" d="M-11.8-10.6c.1-.1.2-.3.3-.5-.1-.2-.2-.5-.3-.6-.1 0-.5.5-.7 1.1.3-.1.6 0 .7 0z"/><path id="XMLID_545_" class="st2" d="M-39.2 29.8V34l-1.4.1v.8h3.9v-.8L-38 34v-5.2h-.5l-2.2.3.1.9z"/><path id="XMLID_539_" class="st2" d="M-46.9-17.7v58.1H0v-58.1h-46.9zm1.8 1.9h43.4V20l-.6-.8-1.7-1.4-2.5-1.4-1.2-.2-1.1-.2s-1.1-.8-1.5-.8c-.4 0-1.2.5-1.2.5h-.9l-.3.2-.2-.8c-.1-.5-.2-1.1-.2-1.2 0-.2-.1-.9-.1-1.3 0-.3-.3-1.3-.3-1.3l-.1-3.9c-.4.4-.8.7-1.2.9 0 0-.9 3.3-.6 5.5.1.2.2.4.2.6.1.3.5 1.1.7 1.7.1.2.2.5.2.7l-.1.1c-.1-.1-.1-.3-.2-.4-.2-.3-1.1-.2-1.3-.3-.1-.1-.2-.4-.2-.6v-.1-1.2s.1-5.4.6-7.4v-.1s1.5 0 3.1-1.9c.5-.7 1.1-1.8 1.3-2.3 0-.1.1-.3.1-.4-.1-.4-.4-.8-.6-1 0 0 .5 0 .8.1 0-.2 0-.5-.1-.7-.2-.6.4-1.4.7-1.7.4-.2.3-.7.3-.9 0-.1-.1-.3-.1-.6 0 0-.3-1.1-.2-1.7 0 0 0 .9.8 1h.2c.3 0 .7.1.9.1.5.1.7-.7.7-.7s.4-.1.7-.5c.3-.3.5-.4.4-.8-.1-.4-2.2-2-2.2-2-.4-.3-.8-.6-1-.7 0 0 .3-.2.5-.1s0 .2.5.6c0-.2 0-.5-.1-.8-.1-.3-1-1.1-1.4-1.5l-.3.7.2-2c0-.5 0-1-.1-1.2-.1-.3-.4 0-.7.4-.3.5-.7 1.4-.7 1.4h-1.7-.1c-.3.1-.6.2-.8.4-.6.5-2 2.4-2 2.4S-17.7-6-18-5.8c-.3.2-.7.7-1.5.9l-.2.6c0 .3 0 .6.2.9l-.6-.4c-1 .7-3.5 2.1-3.8 2.3-.3.2-1.5 1.1-2.5 1.2 0 0-6.3 1.3-6.6 1.9-1.3.6-1.8 1.4-2 2-.3.6-1 2.8-1.9 4.2-.8 1.5-3.5 3-3.9 3.3-.4.3-.9.2-.2 1 .7.7 2.5.5 3.8 0 .1 0 .1 0 .2-.1.1 0 .1-.1.2-.1.2-.1.3-.2.5-.3.7-.7 1.2-2 1.2-2 0-.1-.1-.2-.1-.3-.2-.4-.3-1.2.3-2-.1.9.1 1.8.9 2.4.3.2.4.6.4.6.3 1-.5 2.2-1.2 2.8-.5.5-.5.5-.5 1 0 0 1.5 4.4 1 6l-.9.3s.4-2.8-.1-4.9c0 .5-.1 1-.1 1.5 0 0-.3 2.3-.6 2.8-.1.2-.1.5 0 .8l-1.1.3s-1.5.5-1.7.6c-.2.1-1.1 0-1.1 0s-1.4 0-1.7.1c-.3 0-1.4.6-1.4.6h-.9l-1.2.4v-38.4zm27.4 33.4l-.9.4-2.6.7-2.1.3s-1.5.1-2-.2c-.4-.3-1.9-.1-2-.1-.1 0-1.2.3-1.9.5-.2.1-.5.2-.7.2-.4-.3-1.2-.8-2.4-.9 0 0-.1-.2-.2-.5 0-.3-.2-3-.1-3.6.1-.6 1.6-1.6 2.9-2.7 1.3-1.1 1.6-2.5 1.6-2.5s.4-.6.8-.9c.4-.2 1.6 0 2.4.3.8.3 5.4.1 5.4.1 0 .7.7 3.9.9 4.7.1.5.4 1.7.6 2.5.2.8.3 1.6.3 1.7zm15.9 20.9h-43.4V25h43.4v13.5z"/></g></g><g id="XMLID_482_"><path id="XMLID_536_" class="st2" d="M189.7 7.5h-3.4l-.3-4.2h-3.5l-1.1.1v16.4l2.7.2v3.2h-9.9V20l2.7-.2V3.4l-1.1-.1h-3.5l-.3 4.2h-3.4V.1h21v7.4z"/><path id="XMLID_533_" class="st2" d="M200.5 18.2l3.5-.2c0 4.1-1 5.3-6.8 5.3-6 0-7.2-1.4-7.2-8.4s1.1-8.3 7.1-8.3 6.9 1.2 6.9 8.6c0 .7-.2.9-.9.9h-9.4c.1 3.9.6 4.4 3.4 4.4 3 0 3.4-.5 3.4-2.3zm-6.7-4.5h6.7c-.1-3.8-.7-4.3-3.3-4.3-2.7 0-3.3.5-3.4 4.3z"/><path id="XMLID_531_" class="st2" d="M220.1 12.1l-3.6.2c0-2.1-.5-2.7-3.3-2.7-3 0-3.4.7-3.4 5.4s.4 5.4 3.4 5.4c2.8 0 3.3-.5 3.3-2.6l3.6-.2c0 4.6-.9 5.7-6.9 5.7s-7.2-1.4-7.2-8.4 1.1-8.3 7.2-8.3c5.9 0 6.9 1.1 6.9 5.5z"/><path id="XMLID_529_" class="st2" d="M240.5 23.1H232v-2.7l2.3-.2v-7.7c0-2.1-.6-2.7-2.7-2.7-1.3 0-2.2.3-4 1.2v9.1l2.3.2V23h-8.5v-2.7l2.3-.2V3.2l-2.3-.1V.4h6.2V9c1.5-1.4 3.4-2.4 6-2.4 3.4 0 4.6 1.1 4.6 4.9v8.7l2.3.2v2.7z"/><g id="XMLID_5_"><path id="XMLID_527_" class="st2" d="M46.9 23.1h-9.5v-3.2l2.4-.2V4l-6 19.1h-4.4L23.3 4.2v15.5l2.5.2v3.2h-9.5v-3.2l2.7-.2V3.3l-2.6-.2V0h10.1l4.6 15.1c.3.9.5 1.7.7 2.6.2-.9.4-1.7.7-2.6L37 0h9.8v3.2l-2.7.2v16.4l2.7.2v3.1z"/><path id="XMLID_525_" class="st2" d="M57.6 23.1h-8.5v-2.7l2.3-.2V9.7l-2.3-.1V6.9h6.2v13.3l2.3.2v2.7z"/><path id="XMLID_523_" class="st2" d="M73.3 12.1l-3.6.2c0-2.1-.5-2.7-3.3-2.7-3 0-3.4.7-3.4 5.4s.4 5.4 3.4 5.4c2.8 0 3.3-.5 3.3-2.6l3.6-.2c0 4.6-.9 5.7-6.9 5.7s-7.2-1.4-7.2-8.4 1.1-8.3 7.2-8.3c5.9 0 6.9 1.1 6.9 5.5z"/><path id="XMLID_495_" class="st2" d="M94.5 23.1h-8.6v-2.8l2.3-.2v-7.8c0-2.1-.6-2.7-2.7-2.7-1.3 0-2.3.3-4.1 1.2v9.3l2.3.2v2.8h-8.6v-2.8l2.3-.2V2.9l-2.3-.1V0h6.3v8.7c1.5-1.4 3.4-2.4 6.1-2.4 3.4 0 4.7 1.1 4.7 5v8.8l2.3.2v2.8z"/><path id="XMLID_493_" class="st2" d="M105 23.1h-8.5v-2.7l2.3-.2V9.7l-2.3-.1V6.9h6.2v13.3l2.3.2v2.7z"/><path id="XMLID_490_" class="st2" d="M121.7 9.7v12.9c0 5.4-1.3 6.6-7.5 6.6-5.7 0-6.8-1.1-6.8-5.1l3.6-.1c0 1.8.5 2.4 3.2 2.4 3.1 0 3.6-.9 3.6-3.8v-2.4c-1.7 1.9-2.8 2.4-5.2 2.4-4.2 0-5.7-1.3-5.7-8 0-6.6 1.5-8 5.7-8 2.5 0 3.7.4 5.2 2.1V6.8H124v2.7l-2.3.2zm-3.9 8.7v-7.8c-1.1-.7-2-.8-3.9-.8-2.8 0-3.4.6-3.4 4.8s.6 4.8 3.4 4.8c1.9 0 2.8-.2 3.9-1z"/><path id="XMLID_487_" class="st2" d="M142.3 23.1h-5.9l-.2-2.4c-1.8 1.9-3.5 2.6-5.8 2.6-3.5 0-5-2-5-4.7 0-2.8 1.1-5 8.2-5h2.5v-.9c0-2.5-.5-3.3-3.3-3.3-2.6 0-3.1.6-3.1 2.3l-3.6.2c0-4 1.2-5.3 6.8-5.3 5.7 0 7 1.3 7 6.1v7.5l2.3.1v2.8zm-10.7-2.7c1.8 0 3-.6 4.5-2.1v-2.5h-2c-4.3 0-5 1.1-5 2.5 0 1.2.7 2.1 2.5 2.1z"/><path id="XMLID_485_" class="st2" d="M163.5 23.1H155v-2.7l2.3-.2v-7.7c0-2.1-.6-2.7-2.7-2.7-1.3 0-2.2.3-4 1.2v9.1l2.3.2V23h-8.5v-2.7l2.3-.2V9.7l-2.3-.2V6.9h6.2V9c1.5-1.4 3.4-2.4 6-2.4 3.4 0 4.6 1.1 4.6 4.9v8.7l2.3.2v2.7z"/><path id="XMLID_484_" class="st2" d="M50.9 2.3c0-1.8.3-2.1 2.4-2.1 2 0 2.3.3 2.3 2.1s-.3 2.1-2.3 2.1c-2.1 0-2.4-.3-2.4-2.1z"/><path id="XMLID_483_" class="st2" d="M98.3 2.3c0-1.8.3-2.1 2.4-2.1 2 0 2.3.3 2.3 2.1s-.3 2.1-2.3 2.1c-2.1 0-2.4-.3-2.4-2.1z"/></g></g></svg>